<svg width="118" height="24" viewBox="0 0 118 24" fill="none" xmlns="http://www.w3.org/2000/svg">
<path d="M22.8078 19V5H31.1078V6.64H24.7078V10.92H30.0478V12.48H24.7078V19H22.8078ZM43.6709 19.24L41.9309 15.44C41.4909 14.4933 40.9376 13.82 40.2709 13.42C39.6043 13.02 38.7509 12.82 37.7109 12.82H37.4109V19H35.5109V5.04C36.2176 4.97333 36.8909 4.92667 37.5309 4.9C38.1843 4.86 38.8776 4.84 39.6109 4.84C41.3176 4.84 42.5976 5.18667 43.4509 5.88C44.3176 6.57333 44.7509 7.46667 44.7509 8.56C44.7509 9.53333 44.4576 10.32 43.8709 10.92C43.2976 11.5067 42.4643 11.9467 41.3709 12.24C41.7309 12.4 42.0509 12.5933 42.3309 12.82C42.6109 13.0333 42.8776 13.3267 43.1309 13.7C43.3976 14.06 43.6643 14.5333 43.9309 15.12L45.4509 18.4L43.6709 19.24ZM37.4109 11.22H39.6109C40.5709 11.22 41.3509 11.0067 41.9509 10.58C42.5509 10.1533 42.8509 9.54 42.8509 8.74C42.8509 8.07333 42.5709 7.52667 42.0109 7.1C41.4509 6.66 40.6509 6.44 39.6109 6.44C39.1576 6.44 38.7509 6.44667 38.3909 6.46C38.0309 6.47333 37.7043 6.49333 37.4109 6.52V11.22ZM49.8547 19V5H58.2547V6.64H51.7547V10.9H57.3547V12.5H51.7547V17.36H58.2547V19H49.8547ZM62.9484 19V5H64.8484V17.3H71.2684V19H62.9484ZM75.1633 19V5H77.0633V17.3H83.4833V19H75.1633ZM92.3773 19.24C91.3373 19.24 90.4107 19.0533 89.5973 18.68C88.784 18.2933 88.0907 17.7733 87.5173 17.12C86.9573 16.4533 86.524 15.68 86.2173 14.8C85.924 13.92 85.7773 12.98 85.7773 11.98C85.7773 10.6067 86.0373 9.38 86.5573 8.3C87.0907 7.20667 87.8507 6.34667 88.8373 5.72C89.824 5.08 91.004 4.76 92.3773 4.76C93.404 4.76 94.324 4.94667 95.1373 5.32C95.964 5.69333 96.664 6.21333 97.2373 6.88C97.8107 7.54667 98.244 8.31333 98.5373 9.18C98.844 10.0467 98.9973 10.98 98.9973 11.98C98.9973 12.98 98.844 13.92 98.5373 14.8C98.244 15.68 97.8107 16.4533 97.2373 17.12C96.664 17.7733 95.9707 18.2933 95.1573 18.68C94.344 19.0533 93.4173 19.24 92.3773 19.24ZM92.3773 17.6C93.404 17.6 94.264 17.3533 94.9573 16.86C95.6507 16.3667 96.1707 15.7 96.5173 14.86C96.8773 14.0067 97.0573 13.0467 97.0573 11.98C97.0573 11.26 96.9507 10.5667 96.7373 9.9C96.524 9.23333 96.2173 8.64 95.8173 8.12C95.4173 7.58667 94.924 7.16667 94.3373 6.86C93.764 6.55333 93.1107 6.4 92.3773 6.4C91.404 6.4 90.564 6.64667 89.8573 7.14C89.164 7.63333 88.6307 8.3 88.2573 9.14C87.8973 9.98 87.7173 10.9267 87.7173 11.98C87.7173 12.7 87.8173 13.4 88.0173 14.08C88.2307 14.7467 88.5373 15.3467 88.9373 15.88C89.3373 16.4133 89.824 16.8333 90.3973 17.14C90.984 17.4467 91.644 17.6 92.3773 17.6Z" fill="#3B68F6"/>
<line y1="11.7" x2="118" y2="11.7" stroke="#5A5959" stroke-width="0.6"/>
</svg>
