<svg width="600" height="940" viewBox="0 0 600 940" fill="none" xmlns="http://www.w3.org/2000/svg">
<path d="M627.158 238.998C626.542 240.936 625.925 242.875 625.308 244.813C624.897 245.976 624.486 246.945 624.075 247.914C622.842 251.015 621.814 253.923 620.375 257.024C620.169 257.606 619.964 257.799 619.758 258.575C618.525 261.095 617.497 263.614 616.058 266.328C614.825 268.848 613.386 271.368 612.153 273.887C608.658 280.284 604.753 286.486 600.23 292.495C599.408 293.658 598.586 295.015 597.558 296.178C596.325 297.922 594.886 299.667 593.652 301.217C591.391 304.125 588.925 307.032 586.458 309.94C577.619 319.825 567.958 328.741 557.474 336.688L394.672 461.514L387.272 467.135L379.872 472.756L343.077 501.055L335.676 506.676L328.276 512.297L179.041 397.938C76.2616 319.243 41.7277 188.021 92.2951 74.437H186.235C164.446 107 153.14 143.634 153.346 181.625C203.502 160.497 267.02 164.761 342.665 194.03C515.54 260.901 522.94 243.844 627.158 238.998Z" fill="#191F5B"/>
<path d="M789.345 902.16C789.345 911.373 785.234 919.7 777.628 926.078C770.433 932.457 760.567 936 749.878 936H39.2617C17.4725 936 0 920.763 0 902.16C0 893.124 3.90561 884.62 11.5113 878.242C18.9114 871.864 28.7782 868.32 39.2617 868.32H92.0902C41.7284 764.497 76.4678 644.729 179.247 572.62L328.483 468.089L335.883 462.951L343.283 457.813L380.078 431.945L387.478 426.807L394.878 421.67L557.68 307.571C568.164 300.307 577.619 292.157 586.664 283.121C589.131 280.641 591.597 277.806 593.859 275.148C595.092 273.554 596.531 272.136 597.764 270.542C598.586 269.479 599.614 268.239 600.436 267.175C604.753 261.683 608.864 256.014 612.359 250.167C613.798 247.864 615.237 245.56 616.264 243.257C617.498 240.777 618.731 238.474 619.964 236.17C620.17 235.639 620.376 235.285 620.581 234.753C621.815 232.095 623.048 229.261 624.281 226.426C624.692 225.54 625.103 224.477 625.515 223.591C626.131 221.997 626.748 220.225 627.365 218.276C645.454 167.25 636.82 113.036 603.52 67.6797H39.2617C17.4725 67.6797 0 52.4429 0 33.8399C0 24.9813 4.11117 16.2998 11.5113 9.92163C18.9114 3.54344 28.7782 0 39.2617 0H749.878C771.461 0 789.139 15.2368 789.139 33.8399C789.139 43.0528 785.028 51.3799 777.422 57.7581C770.228 64.1363 760.361 67.6797 749.672 67.6797H696.843C747.205 171.503 712.671 291.448 609.892 363.38L460.657 467.911L453.257 473.049L445.856 478.365L409.061 504.055L401.661 509.193L394.467 514.508L231.459 628.607C160.541 678.038 134.846 759.005 164.858 831.291C201.242 756.348 293.538 705.676 397.756 705.676C497.452 705.676 587.897 753.336 626.542 824.027C651.621 753.867 624.692 675.911 557.475 628.784L449.556 553.131L517.391 507.598L610.303 572.62C713.082 644.552 747.616 764.497 697.255 868.32H750.083C771.667 868.32 789.345 883.557 789.345 902.16Z" fill="#191F5B"/>
<path d="M517.388 555.325L449.554 605.139L394.875 563.078L402.07 557.263L409.47 551.642L446.265 523.537L453.665 517.722L461.065 512.101L517.388 555.325Z" fill="#191F5B"/>
</svg>



